<?xml version="1.0" encoding="UTF-8"?>
<svg xmlns="http://www.w3.org/2000/svg" width="1523" height="528" viewBox="0 0 1523 528" preserveAspectRatio="xMidYMid meet">
  <svg x="24" y="24" width="468.3" height="480" viewBox="545.50 727.69 513.96 526.78" preserveAspectRatio="xMidYMid meet">
    <path d="M0 0 C1.87558594 0.0309375 1.87558594 0.0309375 3.7890625 0.0625 C44.30600276 1.63980181 86.19111967 19.64383065 115 48 C115.77859375 48.75410156 116.5571875 49.50820313 117.359375 50.28515625 C133.15794474 66.61594731 143.83133566 90.35911198 150 112 C150.29390625 113.0209375 150.5878125 114.041875 150.890625 115.09375 C154.03793583 126.81902562 155.20363772 138.27517338 155.375 150.375 C155.40102295 151.39754883 155.4270459 152.42009766 155.45385742 153.47363281 C155.46929691 159.98803048 154.50854414 164.50037685 151 170 C148.16607657 174.49377565 146.55922507 177.55918445 147 183 C149.97117356 190.87100364 155.56139442 197.9298552 160.24731445 204.87402344 C165.77450384 213.08584767 170.97593649 221.47219829 176 230 C176.88945313 231.485 176.88945313 231.485 177.796875 233 C180.91943131 238.61358438 182.18917458 243.58734829 181 250 C176.79715584 258.56733618 170.00346652 261.68376947 161.51171875 264.984375 C159.1007779 265.769065 159.1007779 265.769065 158 267 C157.43018859 270.25606518 157.57904046 272.32376471 159.33984375 275.15234375 C160.16162109 276.28349609 160.16162109 276.28349609 161 277.4375 C163.14711096 280.47924053 164.00131197 282.00655984 164.75 285.75 C163.4996057 291.16837529 159.54058191 293.02876358 155.125 295.8125 C154.42375 296.204375 153.7225 296.59625 153 297 C154.39759905 300.54518884 154.39759905 300.54518884 156 304 C156.375 307.375 156.375 307.375 156 311 C153.93123984 313.06876016 151.78302961 314.49754072 149.33203125 316.0703125 C147.40252674 317.38229953 147.40252674 317.38229953 145 320 C144.50133191 326.10369744 145.59369454 331.45945567 147 337.375 C150.68374579 354.06702346 150.68374579 354.06702346 147.0625 360.375 C140.35814726 367.13681862 130.99624219 368.14015539 122.01245117 368.24072266 C110.06116313 368.2717374 98.75673528 367.66076335 87.02685547 365.38916016 C74.69696644 363.0217977 61.10091549 360.68032223 49 365 C38.22134124 372.66534813 34.16905178 391.49144727 31.75 403.6875 C28.60520163 426.14194816 34.10998776 445.38109344 47 464 C31.16612272 468.95438887 14.30650454 469.47897785 -2.15942383 469.33618164 C-5.0655491 469.31247513 -7.97075443 469.31567339 -10.87695312 469.32226562 C-28.26426491 469.29819362 -45.52798483 468.30997495 -62.5 464.3125 C-63.63598633 464.05049805 -64.77197266 463.78849609 -65.94238281 463.51855469 C-101.23198463 455.12947449 -134.09539511 439.12816193 -162.875 417.125 C-163.77774658 416.44630859 -163.77774658 416.44630859 -164.69873047 415.75390625 C-168.71299014 412.60546729 -168.71299014 412.60546729 -169.86230469 410.1809082 C-170.06875086 406.91107898 -168.65838343 405.34385709 -166.8359375 402.66015625 C-166.13235107 401.60795898 -165.42876465 400.55576172 -164.70385742 399.47167969 C-164.32425873 398.9162146 -163.94466003 398.36074951 -163.55355835 397.78845215 C-161.95950112 395.4540183 -160.39499616 393.10034827 -158.82872009 390.7472229 C-158.03177582 389.55034255 -157.23347817 388.35436227 -156.43385315 387.15927124 C-125.42265945 343.408279 -125.42265945 343.408279 -116.625 292.75 C-120.29656844 275.01657419 -130.58036048 258.51759101 -139.59692383 243.06103516 C-149.71412831 225.69093141 -157.42897432 208.89111399 -161 189 C-161.18401367 188.02305176 -161.36802734 187.04610352 -161.55761719 186.03955078 C-163.41508805 174.93942412 -163.39739607 163.85255686 -163.375 152.625 C-163.37445618 151.60320648 -163.37391235 150.58141296 -163.37335205 149.52865601 C-163.33619567 134.36364963 -162.89761757 119.74495535 -159 105 C-158.67056396 103.74195557 -158.67056396 103.74195557 -158.33447266 102.45849609 C-149.68079842 70.59362204 -132.21441416 40.04106888 -103 23 C-93.72114893 17.80941402 -84.08243296 13.38621669 -74 10 C-73.28875977 9.76039551 -72.57751953 9.52079102 -71.84472656 9.27392578 C-48.42652687 1.55756537 -24.55467643 -0.86321369 0 0 Z " fill="#1BAE8F" transform="translate(812,785)"/>
    <path d="M0 0 C0.63824707 0.33580078 1.27649414 0.67160156 1.93408203 1.01757812 C19.48393278 10.30582452 35.38316414 21.58189935 50 35 C50.65548828 35.59522461 51.31097656 36.19044922 51.98632812 36.80371094 C59.04264225 43.21823326 65.95988893 49.60014829 72 57 C72.72960937 57.84175781 73.45921875 58.68351563 74.2109375 59.55078125 C109.67074879 100.88327422 133.92351004 156.96332373 134.203125 211.9140625 C134.21018463 212.83812393 134.21724426 213.76218536 134.22451782 214.71424866 C134.45114403 253.0915648 134.45114403 253.0915648 131 270 C130.80132324 271.01400879 130.60264648 272.02801758 130.39794922 273.07275391 C125.7814643 296.15517848 118.26119213 317.83716776 108 339 C107.68627441 339.65339355 107.37254883 340.30678711 107.04931641 340.97998047 C96.28727708 363.10227285 81.02801168 383.33423507 64 401 C63.41669922 401.60521484 62.83339844 402.21042969 62.23242188 402.83398438 C54.55773454 410.74875578 46.81729792 418.34736006 38 425 C37.37319336 425.47614746 36.74638672 425.95229492 36.10058594 426.44287109 C5.50645511 449.55028584 -28.40633039 465.99299582 -66 474 C-71.63059409 467.42926195 -75.03438495 461.11438645 -78 453 C-78.46792969 451.8553125 -78.93585938 450.710625 -79.41796875 449.53125 C-87.19792318 429.13338629 -82.56131645 407.43481325 -74 388 C-70.93197134 381.80844863 -67.82050737 376.83905805 -62 373 C-49.42008694 369.69401602 -36.08350907 372.7600489 -23.6015625 375.02734375 C-14.20894306 376.69717787 -5.10604245 377.20784189 4.4375 377.25 C5.60087891 377.270625 6.76425781 377.29125 7.96289062 377.3125 C16.39842202 377.35047651 24.7405357 376.90610697 31.5625 371.4375 C34.75885315 368.24114685 34.94793515 367.6560171 35.3125 363.0625 C35.28531187 356.8545436 33.85480651 350.96316158 32.4230957 344.95336914 C31.23816608 339.83521208 30.5235235 335.25825857 31 330 C32.390625 328.01171875 32.390625 328.01171875 34.25 326.6875 C35.20326172 325.96433594 35.20326172 325.96433594 36.17578125 325.2265625 C37.5660349 324.29178809 38.99445928 323.41352402 40.4375 322.5625 C42.35373099 320.96415346 42.35373099 320.96415346 42.4375 317.625 C41.984453 313.87118198 40.99506131 312.12270466 39 309 C40.21610817 305.35167549 41.31436308 304.88114477 44.5 302.875 C47.4031478 301.13228203 47.4031478 301.13228203 50 299 C50.74085389 293.91985903 50.00506306 291.61630533 47 287.4375 C44.93497304 284.56505729 44.03154297 283.17033204 43.375 279.625 C44.17423318 276.26822063 45.12468257 275.82360736 48 274 C49.9425409 273.20999729 51.90275612 272.46261738 53.875 271.75 C60.15074105 269.22897582 63.97320219 266.05359563 67 260 C70.09796527 242.96119103 52.61610735 224.20463328 44 211 C42.58684899 208.82212092 41.17619168 206.64269844 39.76904297 204.4609375 C38.71675907 202.82974026 37.65940083 201.20181942 36.6015625 199.57421875 C33.5972472 194.74533147 32.56332799 192.11483205 33.3125 186.44921875 C34.34881122 182.75736001 36.35150555 179.99485554 38.625 176.9453125 C44.56351392 168.54366497 41.65742155 150.7094579 40.12866211 141.00024414 C39.51177668 137.63978962 38.78146466 134.32709418 38 131 C37.56494141 129.1128125 37.56494141 129.1128125 37.12109375 127.1875 C31.7545068 105.63133483 22.44736328 83.09555614 8 66 C7.29488281 65.15824219 6.58976562 64.31648437 5.86328125 63.44921875 C-21.18641243 32.33971067 -64.41300824 14.37016016 -105.125 11.375 C-107.75168177 11.22368029 -110.3713497 11.09721003 -113 11 C-114.29550781 10.94900146 -114.29550781 10.94900146 -115.6171875 10.89697266 C-140.01208832 10.07406247 -163.86529915 13.10426213 -187 21 C-187.78552246 21.26683594 -188.57104492 21.53367187 -189.38037109 21.80859375 C-205.15401244 27.28823811 -219.62979875 34.63328116 -232 46 C-232.48952148 46.44714355 -232.97904297 46.89428711 -233.48339844 47.35498047 C-250.48575667 63.05817309 -261.26277801 83.03771728 -268 105 C-268.37898437 106.23234375 -268.75796875 107.4646875 -269.1484375 108.734375 C-274.14389483 126.23725556 -275.55035975 143.54641656 -275.4375 161.6875 C-275.43393494 163.19846756 -275.43393494 163.19846756 -275.43029785 164.73995972 C-275.37464734 179.81960302 -274.73352964 194.3158946 -271 209 C-270.71125 210.21300781 -270.4225 211.42601562 -270.125 212.67578125 C-269.24919662 215.87793737 -268.20421222 218.90675199 -267 222 C-266.76394043 222.60779297 -266.52788086 223.21558594 -266.28466797 223.84179688 C-260.73849973 237.81195934 -253.15464255 250.7358054 -245.79492188 263.80175781 C-228.6733012 294.3095422 -228.6733012 294.3095422 -228 308 C-227.92652344 308.77988281 -227.85304688 309.55976562 -227.77734375 310.36328125 C-225.68552152 346.56789672 -262.78159903 389.52976551 -282 418 C-282.66 418.99 -283.32 419.98 -284 421 C-284 420.34 -284 419.68 -284 419 C-284.58773193 418.73300293 -285.17546387 418.46600586 -285.78100586 418.19091797 C-288.03977568 416.97865268 -289.63586061 415.69152343 -291.50390625 413.9453125 C-292.15641357 413.33703613 -292.8089209 412.72875977 -293.48120117 412.10205078 C-294.16802979 411.44962402 -294.8548584 410.79719727 -295.5625 410.125 C-296.27704346 409.44808105 -296.99158691 408.77116211 -297.7277832 408.07373047 C-340.08646765 367.60644156 -368.72844345 310.55873664 -374 252 C-374.0839502 251.06849121 -374.16790039 250.13698242 -374.25439453 249.17724609 C-379.5047837 186.85822618 -363.27095006 124.47303407 -326 74 C-325.28263672 73.02812744 -325.28263672 73.02812744 -324.55078125 72.03662109 C-317.93220114 63.16781644 -310.67592665 54.96278781 -303 47 C-302.46584473 46.44393066 -301.93168945 45.88786133 -301.38134766 45.31494141 C-294.32100534 38.00281868 -287.08258368 31.19230201 -279 25 C-278.47277344 24.59104492 -277.94554687 24.18208984 -277.40234375 23.76074219 C-197.92040004 -37.60263779 -88.68643274 -47.30543783 0 0 Z " fill="#EAEBEB" transform="translate(925,775)"/>
    <path d="M0 0 C0.99 0.495 0.99 0.495 2 1 C1.26523437 1.55429687 0.53046875 2.10859375 -0.2265625 2.6796875 C-18.74064452 18.16893359 -31.67871445 44.74871281 -34.71875 68.484375 C-37.22224388 99.7780485 -30.37272929 135.03910658 -9.83984375 159.58203125 C4.53967547 176.03338514 21.89421013 184.99263965 43 190 C43.16435547 190.90202148 43.16435547 190.90202148 43.33203125 191.82226562 C45.54184868 203.70677158 48.13896618 215.36888805 51.875 226.875 C52.32939453 228.32422852 52.32939453 228.32422852 52.79296875 229.80273438 C57.02812639 242.36006394 63.68214446 249.22510066 74.75 256.25 C76.43660574 257.35253367 78.1181947 258.46243082 79.79940796 259.57316589 C80.92560212 260.31712323 82.05306193 261.05916827 83.18179321 261.79927063 C88.20362254 265.10036198 93.05969806 268.59415883 97.875 272.1875 C98.63312988 272.75162598 99.39125977 273.31575195 100.17236328 273.89697266 C101.68697003 275.0263615 103.20048917 276.15721045 104.71289062 277.28955078 C159.49682892 319.67802922 159.49682892 319.67802922 225 338 C225.69996094 338.04125 226.39992188 338.0825 227.12109375 338.125 C234.16608306 338.33182537 241.0618185 337.10537173 248 336 C246.12800462 340.36494533 243.261217 342.15269646 239 344 C232.48244887 346.43218043 226.15308054 346.34429145 219.25 346.3125 C217.45332886 346.30839111 217.45332886 346.30839111 215.62036133 346.30419922 C206.20908522 346.19459732 197.25059883 345.1754261 188.02685547 343.38916016 C175.69696644 341.0217977 162.10091549 338.68032223 150 343 C139.22134124 350.66534813 135.16905178 369.49144727 132.75 381.6875 C129.60520163 404.14194816 135.10998776 423.38109344 148 442 C132.16612272 446.95438887 115.30650454 447.47897785 98.84057617 447.33618164 C95.9344509 447.31247513 93.02924557 447.31567339 90.12304688 447.32226562 C72.73573509 447.29819362 55.47201517 446.30997495 38.5 442.3125 C37.36401367 442.05049805 36.22802734 441.78849609 35.05761719 441.51855469 C-0.23198463 433.12947449 -33.09539511 417.12816193 -61.875 395.125 C-62.77774658 394.44630859 -62.77774658 394.44630859 -63.69873047 393.75390625 C-67.71299014 390.60546729 -67.71299014 390.60546729 -68.86230469 388.1809082 C-69.06875086 384.91107898 -67.65838343 383.34385709 -65.8359375 380.66015625 C-65.13235107 379.60795898 -64.42876465 378.55576172 -63.70385742 377.47167969 C-63.32425873 376.9162146 -62.94466003 376.36074951 -62.55355835 375.78845215 C-60.95950112 373.4540183 -59.39499616 371.10034827 -57.82872009 368.7472229 C-57.03177582 367.55034255 -56.23347817 366.35436227 -55.43385315 365.15927124 C-24.42265945 321.408279 -24.42265945 321.408279 -15.625 270.75 C-19.29656844 253.01657419 -29.58036048 236.51759101 -38.59692383 221.06103516 C-48.71412831 203.69093141 -56.42897432 186.89111399 -60 167 C-60.18401367 166.02305176 -60.36802734 165.04610352 -60.55761719 164.03955078 C-62.41508805 152.93942412 -62.39739607 141.85255686 -62.375 130.625 C-62.37445618 129.60320648 -62.37391235 128.58141296 -62.37335205 127.52865601 C-62.33619567 112.36364963 -61.89761757 97.74495535 -58 83 C-57.67056396 81.74195557 -57.67056396 81.74195557 -57.33447266 80.45849609 C-48.50828529 47.95838791 -31.01205695 19.08315804 -2 1 C-1.34 0.67 -0.68 0.34 0 0 Z " fill="#247F6D" transform="translate(711,807)"/>
    <path d="M0 0 C4.60113388 1.34652606 7.18014545 4.31348092 10.4140625 7.74609375 C11.07712402 8.4328418 11.74018555 9.11958984 12.42333984 9.82714844 C23.09525639 21.0599133 29.38725063 32.78431132 32.9765625 47.87109375 C33.98074219 47.34 34.98492188 46.80890625 36.01953125 46.26171875 C46.71222857 40.70114816 57.72074705 35.39917197 69.9765625 34.87109375 C71.05550781 34.81953125 72.13445312 34.76796875 73.24609375 34.71484375 C82.36486312 34.47355327 82.36486312 34.47355327 84.83984375 36.08203125 C87.74392244 40.6527118 86.27188807 47.22219267 85.3671875 52.2734375 C84.1751397 57.5829157 82.74604779 62.72419957 80.9765625 67.87109375 C81.98009766 67.98324219 81.98009766 67.98324219 83.00390625 68.09765625 C89.6208544 69.00360083 95.75239206 70.61474124 102.0390625 72.80859375 C102.77697021 73.06141113 103.51487793 73.31422852 104.27514648 73.57470703 C107.83538261 74.85818677 110.58078288 75.89937018 112.9765625 78.87109375 C112.85658836 83.87472099 110.74362998 87.49547404 108.0390625 91.55859375 C107.63864746 92.16654785 107.23823242 92.77450195 106.82568359 93.40087891 C93.9431317 112.47744566 75.13961342 124.33814592 52.9765625 129.87109375 C51.84734375 130.15919922 51.84734375 130.15919922 50.6953125 130.453125 C36.45096784 132.64298833 19.67147854 131.58824374 6.5390625 125.49609375 C3.15185764 124.03165864 1.41297068 123.63383725 -2.0859375 124.87109375 C-3.19001953 125.32935547 -3.19001953 125.32935547 -4.31640625 125.796875 C-25.6873919 134.27742486 -49.07824538 132.38963274 -69.98828125 123.62890625 C-87.80737224 115.33986787 -102.93898402 100.90172028 -111.0234375 82.87109375 C-111.0859375 80.24609375 -111.0859375 80.24609375 -110.0234375 77.87109375 C-105.61540204 74.48132788 -101.32905103 72.69849214 -96.0859375 71.12109375 C-95.40853516 70.90066406 -94.73113281 70.68023438 -94.03320312 70.453125 C-89.54042185 69.06609186 -85.72133556 68.65059267 -81.0234375 68.87109375 C-81.21679688 68.2884375 -81.41015625 67.70578125 -81.609375 67.10546875 C-84.61867313 57.6306489 -86.8156118 47.85248989 -86.0234375 37.87109375 C-84.93359375 36.16015625 -84.93359375 36.16015625 -83.0234375 34.87109375 C-67.59932024 32.32670612 -49.95965142 37.63804203 -36.88671875 45.76953125 C-35.0972555 47.04073098 -35.0972555 47.04073098 -33.0234375 46.87109375 C-32.76691406 45.96230469 -32.51039063 45.05351563 -32.24609375 44.1171875 C-27.85482709 29.70141312 -21.38272802 18.76246782 -10.8359375 7.93359375 C-10.15877686 7.22855713 -9.48161621 6.52352051 -8.78393555 5.79711914 C-5.92461725 2.99179655 -3.88513762 1.11936136 0 0 Z " fill="#FAFCFC" transform="translate(819.0234375,818.12890625)"/>
    <path d="M0 0 C6.48394409 5.3817597 12.33642789 11.275341 18.24023438 17.27929688 C18.99498047 18.04177734 19.74972656 18.80425781 20.52734375 19.58984375 C21.19499756 20.26909912 21.86265137 20.94835449 22.55053711 21.64819336 C24.55648069 23.57416311 26.5944189 25.39076598 28.70045471 27.20343018 C32.6987487 30.69351504 36.49181391 34.34379308 40.2421875 38.09692383 C41.25343437 39.10313278 41.25343437 39.10313278 42.28511047 40.12966919 C44.48435854 42.31951468 46.67990811 44.51302018 48.875 46.70703125 C50.41049043 48.23930526 51.94605475 49.77150522 53.48168945 51.30363464 C56.68406638 54.5000498 59.88439609 57.6984987 63.08349609 60.89819336 C67.19218472 65.00698428 71.30774886 69.10881458 75.42504883 73.20897388 C78.59045468 76.36330002 81.7513445 79.52212119 84.91094971 82.6822567 C86.42767193 84.19779585 87.94602282 85.71170683 89.46600342 87.22397804 C91.57974045 89.32798235 93.68712457 91.43814899 95.79296875 93.55004883 C96.42560135 94.17706192 97.05823395 94.80407501 97.71003723 95.4500885 C102 99.77167467 102 99.77167467 102 102 C102.66 102 103.32 102 104 102 C103.99097656 102.83917969 103.98195313 103.67835937 103.97265625 104.54296875 C104.17661621 112.81664895 105.61948414 120.01695329 108.25 127.875 C108.5375415 128.7414917 108.82508301 129.6079834 109.12133789 130.50073242 C111.98217051 138.670858 116.08604901 145.90207079 121 153 C105.16612272 157.95438887 88.30650454 158.47897785 71.84057617 158.33618164 C68.9344509 158.31247513 66.02924557 158.31567339 63.12304688 158.32226562 C45.73573509 158.29819362 28.47201517 157.30997495 11.5 153.3125 C10.36401367 153.05049805 9.22802734 152.78849609 8.05761719 152.51855469 C-24.07008671 144.8811241 -53.96868585 130.88096337 -81 112 C-80.35609709 108.22936233 -78.64395238 105.66462487 -76.52734375 102.51171875 C-75.8005542 101.42431396 -75.07376465 100.33690918 -74.32495117 99.21655273 C-73.52944346 98.03999261 -72.7336186 96.86364685 -71.9375 95.6875 C-71.11994916 94.4716032 -70.30265072 93.25553667 -69.4855957 92.03930664 C-61.78720618 80.60277451 -53.95667818 69.25837136 -46 58 C-45.42942871 57.19240234 -44.85885742 56.38480469 -44.27099609 55.55273438 C-30.71274101 36.4256973 -16.61739174 16.61739174 0 0 Z " fill="#1BAE8F" transform="translate(738,1096)"/>
    <path d="M0 0 C9.65294456 4.30208837 16.2197734 14.58862895 20.2890625 23.97265625 C26.52670943 40.64377736 25.67625124 58.56681379 18.78515625 74.875 C16.04989168 80.45652539 12.48640358 85.07384142 8.375 89.6875 C7.67395142 90.48244873 7.67395142 90.48244873 6.95874023 91.29345703 C5.5859375 92.76171875 5.5859375 92.76171875 3 95 C-1 95 -1 95 -2.67578125 93.85546875 C-7.67857751 88.75715371 -11.40965903 83.15998651 -15 77 C-15.40347656 76.319375 -15.80695312 75.63875 -16.22265625 74.9375 C-23.12552366 62.33911082 -24.29487544 45.72338703 -20.75 31.875 C-20.20478086 30.23681843 -19.62356843 28.60998919 -19 27 C-18.58234375 25.85724609 -18.58234375 25.85724609 -18.15625 24.69140625 C-14.21726535 14.89487977 -7.6612987 7.12401282 0 0 Z " fill="#1DAE8F" transform="translate(818,832)"/>
    <path d="M0 0 C12.84715534 -1.14706744 26.08353154 4.63785437 37 11 C37.73734375 11.36996094 38.4746875 11.73992188 39.234375 12.12109375 C42.11952899 15.19135718 42.03936865 18.86537726 42.5 22.9375 C44.61754045 38.44180719 49.48270075 51.23064132 60 63 C60 63.66 60 64.32 60 65 C44.05170373 64.07990598 29.88739875 54.07350813 19 43 C16.47997091 40.11645794 14.19722105 37.13485266 12 34 C11.55011719 33.37738281 11.10023438 32.75476563 10.63671875 32.11328125 C4.06797139 22.41268531 1.26289561 11.51685397 0 0 Z " fill="#1EAF90" transform="translate(744,864)"/>
    <path d="M0 0 C-0.98915961 18.79403263 -10.04467902 33.98859538 -23 47 C-23.63550781 47.6703125 -24.27101563 48.340625 -24.92578125 49.03125 C-32.90005081 56.81102518 -45.28628313 62.32157078 -56 65 C-58.234375 64.55859375 -58.234375 64.55859375 -60 64 C-59.48050781 63.32195313 -58.96101562 62.64390625 -58.42578125 61.9453125 C-49.24664359 49.69515096 -42.00794374 35.45015445 -41.6875 19.8125 C-41.51314984 16.92700493 -41.38841106 15.49414518 -39.59375 13.2109375 C-37.48854911 11.52850236 -35.37553575 10.27340631 -33 9 C-32.09507812 8.47664062 -31.19015625 7.95328125 -30.2578125 7.4140625 C-20.77722953 2.25883834 -10.83285027 -0.63722649 0 0 Z " fill="#1EAE90" transform="translate(894,864)"/>
    <path d="M0 0 C9.09191414 -0.58974578 16.45437743 0.91254926 25 4 C23.00316936 9.55216325 19.76469464 13.52264711 16 18 C15.49726562 18.60070312 14.99453125 19.20140625 14.4765625 19.8203125 C4.362558 30.85843923 -12.0862584 39.40081566 -27 41 C-30.79299728 41.10914573 -34.58086585 41.09432177 -38.375 41.0625 C-39.39722656 41.05798828 -40.41945313 41.05347656 -41.47265625 41.04882812 C-43.98183194 41.037103 -46.4908849 41.02069176 -49 41 C-46.52490687 38.52490687 -44.4337256 38.00964691 -41.125 36.875 C-23.59363005 30.26449446 -8.65572912 16.59014748 0 0 Z " fill="#1FAF91" transform="translate(894,897)"/>
    <path d="M0 0 C2.14886452 2.45321014 3.60308281 4.999683 5.17578125 7.85546875 C14.38287887 23.72637578 31.80002955 34.62176151 49 40 C49 40.33 49 40.66 49 41 C24.52202478 41.91955983 6.71195978 36.88096817 -11.9609375 20.25390625 C-16.39392636 16.06289277 -20.031528 11.33890019 -23 6 C-23 5.34 -23 4.68 -23 4 C-5.59538033 -2.11071286 -5.59538033 -2.11071286 0 0 Z " fill="#1FAF91" transform="translate(744,897)"/>
    <path d="M0 0 C0.33 0 0.66 0 1 0 C1.42105485 6.10529532 1.10167827 9.14274942 -3 14 C-7.51583088 18.62872665 -12.35651279 20.55253832 -18.390625 22.7890625 C-21.2791412 23.85403869 -21.2791412 23.85403869 -23 27 C-31.15638745 26.06441438 -38.11375834 21.51531549 -43.5 15.375 C-49 8.30130058 -49 8.30130058 -49 5 C-47.7934375 5.495 -47.7934375 5.495 -46.5625 6 C-39.80705573 7.89626506 -34.57027728 7.23669014 -28 5 C-22.16685948 4.51390496 -17.86883041 5.53424826 -12.33203125 7.3203125 C-9.41386155 8.17083432 -7.01316655 8.4409512 -4 8 C-1.46214383 6.33726664 -1.0681616 5.26644989 -0.3125 2.3125 C-0.209375 1.549375 -0.10625 0.78625 0 0 Z " fill="#24806E" transform="translate(992,1027)"/>
  </svg>
  <svg x="562" y="163" width="936.6" height="202" viewBox="238.00 1339.44 1177.45 253.94" preserveAspectRatio="xMidYMid meet">
    <path d="M0 0 C0.96486832 -0.0049649 1.92973663 -0.00992981 2.92384338 -0.01504517 C6.14039825 -0.02972769 9.35690333 -0.03648905 12.57348633 -0.04199219 C13.68034601 -0.04481956 14.7872057 -0.04764694 15.92760658 -0.05056 C21.81827663 -0.0655995 27.70892202 -0.0747908 33.59960938 -0.07910156 C38.4183732 -0.08344185 43.2369535 -0.09715088 48.05566406 -0.12011719 C134.42177348 -0.52358515 134.42177348 -0.52358515 164.71801758 17.16113281 C165.58426758 17.66515625 166.45051758 18.16917969 167.34301758 18.68847656 C189.49280199 32.57054631 202.52930938 55.50371631 208.89379883 80.27050781 C209.16579102 81.55441406 209.4377832 82.83832031 209.71801758 84.16113281 C209.89461914 84.96115723 210.0712207 85.76118164 210.25317383 86.58544922 C212.17000096 96.35271033 212.11317579 106.12243454 212.09301758 116.03613281 C212.09319885 117.40008682 212.09319885 117.40008682 212.09338379 118.79159546 C212.06725894 132.58141503 211.39561362 145.79372793 207.71801758 159.16113281 C207.42926758 160.26328125 207.14051758 161.36542969 206.84301758 162.50097656 C205.94907903 165.47412039 204.89648017 168.28863024 203.71801758 171.16113281 C203.44473633 171.83595703 203.17145508 172.51078125 202.88989258 173.20605469 C196.93951023 187.74162851 189.62157468 199.7383587 178.71801758 211.16113281 C178.17918945 211.77472656 177.64036133 212.38832031 177.08520508 213.02050781 C159.35843158 232.43978733 127.58940879 239.99457554 102.24873352 241.28707886 C99.55886174 241.37097758 96.86970829 241.42958556 94.17895508 241.47753906 C92.65598564 241.50884666 92.65598564 241.50884666 91.10224915 241.54078674 C87.76591509 241.60703002 84.42951109 241.66601242 81.09301758 241.72363281 C79.94660797 241.74447937 78.80019836 241.76532593 77.61904907 241.7868042 C58.88160193 242.12233459 40.1458243 242.26709961 21.40551758 242.28613281 C19.62319733 242.29001511 19.62319733 242.29001511 17.80487061 242.29397583 C14.42562837 242.29981739 11.04647921 242.29826853 7.66723633 242.29394531 C6.67363602 242.29592422 5.68003571 242.29790314 4.65632629 242.29994202 C3.72495346 242.29683517 2.79358063 242.29372833 1.83398438 242.29052734 C1.03453903 242.28973175 0.23509369 242.28893616 -0.58857727 242.28811646 C-4.16880977 242.11932233 -7.72545084 241.60569926 -11.28198242 241.16113281 C-11.28198242 161.96113281 -11.28198242 82.76113281 -11.28198242 1.16113281 C-7.81957388 -0.57007146 -3.81183112 0.00464888 0 0 Z " fill="#868686" transform="translate(1203.281982421875,1346.8388671875)"/>
    <path d="M0 0 C1.22203125 0.27714844 2.4440625 0.55429688 3.703125 0.83984375 C24.18543679 6.313565 41.05158526 19.15514459 52.25 37 C59.0811133 48.88019705 61 59.17444086 61 73 C43.51 73 26.02 73 8 73 C6.02 67.39 4.04 61.78 2 56 C-3.69198992 48.18413325 -8.87937005 44.08302984 -18 41 C-19.06863281 40.63390625 -20.13726562 40.2678125 -21.23828125 39.890625 C-25.76870879 38.81800041 -29.92632913 38.69800307 -34.5625 38.75 C-35.88314453 38.76123901 -35.88314453 38.76123901 -37.23046875 38.77270508 C-53.04123363 39.03055192 -67.21953726 41.22448167 -78.99609375 52.6796875 C-83.5174062 57.91489139 -84.72178235 63.56110307 -84.46875 70.4140625 C-83.27500136 76.99957585 -79.42485071 82.33506885 -74.125 86.3125 C-60.41093814 94.44445628 -42.91046904 96.15415367 -27.453125 98.4765625 C-20.28638808 99.56292307 -13.13691484 100.73206501 -6 102 C-4.84274414 102.20447754 -4.84274414 102.20447754 -3.66210938 102.41308594 C17.90094618 106.31969809 42.01721942 112.44340766 56.00390625 130.6015625 C66.76915993 146.73781748 71.04023376 166.8114758 67.3125 185.9921875 C62.42101519 205.92498808 51.21121626 220.98178946 33.8125 231.6875 C16.68837554 241.81609224 -4.5837356 247.11368827 -24.40234375 247.203125 C-25.39770645 247.20882507 -26.39306915 247.21452515 -27.41859436 247.22039795 C-29.52229766 247.22981486 -31.6260155 247.23636872 -33.72973633 247.24023438 C-36.89627006 247.24987448 -40.06213568 247.28090285 -43.22851562 247.3125 C-54.88971195 247.37279301 -65.63783553 246.69863178 -77 244 C-78.0725 243.77699219 -79.145 243.55398438 -80.25 243.32421875 C-100.61568919 239.07172399 -120.30628914 227.35747392 -131.9465332 209.99609375 C-140.36348331 196.84117555 -144 181.49780209 -144 166 C-126.84 166 -109.68 166 -92 166 C-90.18245574 170.2409366 -88.53004681 174.23544138 -87.0625 178.5625 C-83.45372897 188.46972535 -77.38841233 195.06673541 -67.9375 199.75 C-49.86086207 207.24277878 -26.45597206 208.0021663 -8.28125 200.5234375 C0.53895492 196.60858104 5.90402575 191.99350685 10.9375 183.875 C13.59779934 176.56335968 13.14996953 167.56165175 10.0625 160.5 C4.84355718 151.61762099 -5.43164213 147.6247874 -15 145 C-22.26680908 143.32210793 -29.63796864 142.17054674 -37 141 C-38.0921582 140.82581543 -39.18431641 140.65163086 -40.30957031 140.47216797 C-41.42686523 140.29443848 -42.54416016 140.11670898 -43.6953125 139.93359375 C-44.80874023 139.75642822 -45.92216797 139.5792627 -47.06933594 139.39672852 C-49.22019571 139.05726121 -51.37186058 138.72284353 -53.52441406 138.39428711 C-59.12059716 137.52734341 -64.51989588 136.41905854 -70 135 C-72.3315103 134.57325035 -74.66488452 134.15656028 -77 133.75 C-89.90635486 131.23921845 -101.1077165 126.16632227 -112.625 119.9375 C-113.56158447 119.430979 -114.49816895 118.92445801 -115.46313477 118.40258789 C-126.59696324 112.21824585 -133.68239362 104.96125864 -137.41015625 92.4765625 C-142.56703613 70.82449731 -139.84068783 50.09420946 -128.125 30.98046875 C-114.90388466 12.43688234 -93.86632453 3.16974179 -72 -1 C-70.77152344 -1.2784375 -69.54304688 -1.556875 -68.27734375 -1.84375 C-46.03336672 -6.56233223 -22.00050265 -5.1917074 0 0 Z " fill="#868686" transform="translate(382,1346)"/>
    <path d="M0 0 C0.9215538 0.00222061 1.8431076 0.00444122 2.79258728 0.00672913 C3.83359085 0.00680466 4.87459442 0.00688019 5.94714355 0.00695801 C7.07941879 0.01211929 8.21169403 0.01728058 9.37828064 0.02259827 C11.10744972 0.02472069 11.10744972 0.02472069 12.87155151 0.02688599 C16.57043503 0.03250446 20.26925903 0.0450601 23.96812439 0.05775452 C26.46877456 0.06276714 28.96942567 0.06733045 31.47007751 0.07142639 C37.61528027 0.0824799 43.76044808 0.099236 49.90562439 0.12025452 C55.23621391 13.38032544 60.56639188 26.64056174 65.89614105 39.90097046 C68.3729175 46.06316756 70.84981798 52.22531474 73.32701111 58.38734436 C82.92691939 82.26738071 92.52664145 106.14742585 102.07705688 130.04730797 C106.67818238 141.56157376 111.29353773 153.07004111 115.91819763 164.57487488 C118.71459142 171.53171432 121.50731044 178.49002702 124.29917145 185.4486866 C126.33135216 190.51321338 128.36559201 195.5768971 130.40367126 200.63905334 C132.42363303 205.65650281 134.43861496 210.67592499 136.4500885 215.69678307 C137.20742764 217.58460708 137.96658113 219.47170431 138.72761536 221.35804176 C139.77479899 223.95438433 140.81559234 226.55319922 141.85484314 229.15272522 C142.16633301 229.92066406 142.47782288 230.68860291 142.79875183 231.47981262 C144.00219327 234.50615465 144.90562439 236.83182596 144.90562439 240.12025452 C127.08562439 240.12025452 109.26562439 240.12025452 90.90562439 240.12025452 C89.25562439 235.83025452 87.60562439 231.54025452 85.90562439 227.12025452 C84.74909405 224.34863971 83.59200797 221.57724966 82.42808533 218.80873108 C79.12577512 210.80820148 75.97563478 202.74553537 72.79527283 194.69593811 C71.54162125 191.52308634 70.28626433 188.3509136 69.03062439 185.17884827 C65.36479151 175.91211062 61.71227161 166.6410063 58.11656189 157.34681702 C55.86449706 151.52959092 53.53492862 145.75348511 51.11265564 140.00453186 C47.14859435 130.53215724 43.41542556 120.96153772 39.61851501 111.42103577 C38.44263502 108.46690468 37.26394647 105.51391354 36.08335876 102.56166077 C34.56234482 98.75744581 33.04674589 94.95111289 31.53477478 91.14329529 C30.95043466 89.67402715 30.36434418 88.20545389 29.776474 86.7375946 C28.95530477 84.6860456 28.14063557 82.63202942 27.32749939 80.57728577 C26.85924744 79.40141907 26.39099548 78.22555237 25.90855408 77.01405334 C24.90562439 74.12025452 24.90562439 74.12025452 24.90562439 71.12025452 C24.24562439 71.12025452 23.58562439 71.12025452 22.90562439 71.12025452 C22.67874939 72.35775452 22.45187439 73.59525452 22.21812439 74.87025452 C20.85986098 80.94471034 18.37497849 86.42774349 15.90562439 92.12025452 C14.74740056 94.86516206 13.60540429 97.6166105 12.46812439 100.37025452 C12.16946472 101.09277405 11.87080505 101.81529358 11.56309509 102.55970764 C9.31679479 108.0319161 7.22248206 113.55051798 5.17539978 119.0997467 C3.36082012 123.9874145 1.41258952 128.80868426 -0.59437561 133.62025452 C-2.82939646 138.97956985 -4.96455003 144.35817338 -6.96937561 149.80775452 C-9.71876018 157.27466235 -12.73684354 164.62108714 -15.77308655 171.97523499 C-18.27695457 178.0616416 -20.65431774 184.17856406 -22.92640686 190.35462952 C-24.97162538 195.88010938 -27.21528204 201.31331016 -29.48280334 206.75062561 C-32.01813235 212.86098628 -34.35294367 219.03330836 -36.63734436 225.24134827 C-38.36501311 229.90368723 -40.23245669 234.51026275 -42.09437561 239.12025452 C-61.10571996 239.83751977 -80.06654582 240.27961658 -99.09437561 240.12025452 C-97.79080182 236.11145863 -96.36965598 232.18510119 -94.80140686 228.27259827 C-94.34395081 227.12960266 -93.88649475 225.98660706 -93.41517639 224.80897522 C-92.91248457 223.55853812 -92.40971512 222.30813223 -91.90687561 221.05775452 C-91.37539095 219.73250666 -90.84398007 218.40722921 -90.31263733 217.08192444 C-85.82664714 205.90291029 -81.29683623 194.74166965 -76.76445007 183.58140564 C-72.17303145 172.27474715 -67.61731168 160.95447312 -63.09437561 149.62025452 C-57.98833489 136.8248605 -52.83165685 124.05082111 -47.6466217 111.2872467 C-43.09419608 100.07874752 -38.57841882 88.85627682 -34.09437561 77.62025452 C-27.3793643 60.79661378 -20.5866296 44.00502068 -13.76283264 27.22523499 C-12.69959133 24.6103681 -11.63787423 21.994895 -10.57826233 19.3785553 C-9.29420209 16.20820832 -8.00728517 13.03903922 -6.71937561 9.87025452 C-6.35610168 8.97137512 -5.99282776 8.07249573 -5.61854553 7.14637756 C-2.77040084 0.15907042 -2.77040084 0.15907042 0 0 Z " fill="#868686" transform="translate(753.0943756103516,1347.8797454833984)"/>
    <path d="M0 0 C17.49 0 34.98 0 53 0 C57.43881069 11.08280989 61.87670572 22.1659829 66.3125 33.25 C66.83181343 34.54764156 66.83181343 34.54764156 67.36161804 35.87149811 C82.03807583 72.54675185 96.65616077 109.24517664 111.25830555 145.95007324 C112.99860239 150.3244493 114.73920495 154.69870368 116.47982216 159.07295227 C117.33226927 161.21549177 118.18454453 163.35809965 119.03664207 165.5007782 C123.91877415 177.77730696 128.81762519 190.04687251 133.74414062 202.30566406 C134.68394123 204.64639618 135.62370015 206.98714504 136.56341553 209.32791138 C138.35344011 213.78654421 140.14793853 218.24334144 141.94488525 222.69918823 C142.7482578 224.6992928 143.55146928 226.69946207 144.35449219 228.69970703 C144.91179394 230.07628416 144.91179394 230.07628416 145.48035431 231.48067093 C145.81464195 232.31544338 146.1489296 233.15021584 146.49334717 234.01028442 C146.78605877 234.73686815 147.07877037 235.46345188 147.38035202 236.2120533 C148 238 148 238 148 240 C130.18 240 112.36 240 94 240 C87.54832828 224.29527279 81.22089894 208.56517188 75.14941406 192.71069336 C74.44510254 190.87583374 74.44510254 190.87583374 73.7265625 189.00390625 C73.32002441 187.93986572 72.91348633 186.8758252 72.49462891 185.77954102 C71.25806728 182.60480114 69.94736908 179.46332755 68.63183594 176.32055664 C66.07075166 170.19715375 63.60462802 164.03945526 61.1640625 157.8671875 C60.72162201 156.75046661 60.27918152 155.63374573 59.82333374 154.48318481 C58.89343573 152.13547442 57.96404968 149.78756118 57.03515625 147.43945312 C55.63665358 143.90445677 54.23643241 140.37014498 52.8359375 136.8359375 C48.58365945 126.09896607 44.33657917 115.36044537 40.17861938 104.58651733 C38.63517544 100.59468201 37.03458298 96.63243253 35.375 92.6875 C33.59620813 88.45622099 31.86703922 84.20926922 30.1875 79.9375 C29.76855469 78.87402344 29.34960938 77.81054688 28.91796875 76.71484375 C28 74 28 74 28 71 C27.34 71 26.68 71 26 71 C25.91105469 71.63292969 25.82210938 72.26585937 25.73046875 72.91796875 C24.70608374 77.24010657 23.00085319 81.21154725 21.3125 85.3125 C18.76750361 91.57470256 16.27309885 97.84412569 13.9375 104.1875 C11.64104183 110.40489289 9.15647345 116.52853146 6.60522461 122.64526367 C4.63399773 127.39499212 2.77948701 132.17540152 1 137 C-1.04812081 142.55292647 -3.22155328 148.03757005 -5.5 153.5 C-7.73502085 158.85931533 -9.87017442 164.23791886 -11.875 169.6875 C-14.62438457 177.15440783 -17.64246793 184.50083263 -20.67871094 191.85498047 C-23.17955922 197.9340467 -25.55589746 204.0430049 -27.82324219 210.21240234 C-29.94621594 215.95212985 -32.26838092 221.60280583 -34.64111328 227.2434082 C-34.91938965 227.90816162 -35.19766602 228.57291504 -35.484375 229.2578125 C-35.85127441 230.12623779 -35.85127441 230.12623779 -36.22558594 231.01220703 C-37.24877638 233.63856788 -38.1086701 236.32601029 -39 239 C-57.48 239 -75.96 239 -95 239 C-93.87520374 232.25122243 -93.87520374 232.25122243 -92.56396484 229.15820312 C-92.27148361 228.45888672 -91.97900238 227.75957031 -91.67765808 227.0390625 C-91.35864029 226.29398438 -91.0396225 225.54890625 -90.7109375 224.78125 C-90.37616898 223.98396484 -90.04140045 223.18667969 -89.69648743 222.36523438 C-88.97328207 220.64352707 -88.24740325 218.9229408 -87.51913452 217.20336914 C-85.55338153 212.55867407 -83.61041371 207.9044811 -81.66796875 203.25 C-81.0726107 201.82439758 -81.0726107 201.82439758 -80.46522522 200.36999512 C-76.754269 191.45901922 -73.20095691 182.49029484 -69.6875 173.5 C-63.84565558 158.56791879 -57.82921152 143.71195921 -51.75 128.875 C-46.17000995 115.25483423 -40.62561493 101.62958477 -35.29980469 87.90771484 C-30.25035144 74.96533256 -24.94264076 62.12736379 -19.67785645 49.27151489 C-12.97530005 32.9001039 -6.40731773 16.48942064 0 0 Z " fill="#868686" transform="translate(1011,1348)"/>
    <path d="M0 0 C67.65 0 135.3 0 205 0 C205 14.52 205 29.04 205 44 C204.67 44.33 204.34 44.66 204 45 C179.58 45 155.16 45 130 45 C130 109.68 130 174.36 130 241 C111.85 241 93.7 241 75 241 C75 176.32 75 111.64 75 45 C50.25 45 25.5 45 0 45 C0 30.15 0 15.3 0 0 Z " fill="#878787" transform="translate(472,1347)"/>
    <path d="M0 0 C1.29901245 -0.00956978 1.29901245 -0.00956978 2.62426758 -0.01933289 C3.57197021 -0.02044571 4.51967285 -0.02155853 5.49609375 -0.02270508 C6.47537842 -0.02603348 7.45466309 -0.02936188 8.46362305 -0.03279114 C10.55191579 -0.03787197 12.64021671 -0.04019911 14.72851562 -0.04003906 C17.86472911 -0.04218912 21.00056936 -0.0602289 24.13671875 -0.0793457 C47.93955087 -0.14817014 71.8887804 0.81044273 90.24609375 17.95776367 C103.85063941 32.50629822 107.33678894 52.75731151 107.30859375 72.02026367 C107.30698242 73.18557617 107.30537109 74.35088867 107.30371094 75.55151367 C107.10029777 90.19726146 105.21361422 105.74163788 98.93359375 119.14526367 C98.588125 119.90323242 98.24265625 120.66120117 97.88671875 121.44213867 C90.28355981 136.5443037 77.50477472 144.86924169 61.93359375 150.14526367 C60.62648438 150.64606445 60.62648438 150.64606445 59.29296875 151.15698242 C47.65488783 154.58074344 36.04516017 154.42503056 24.02197266 154.35107422 C20.91300372 154.3326416 17.8043308 154.33056624 14.6953125 154.33081055 C12.71223701 154.32590046 10.72916352 154.32007438 8.74609375 154.31323242 C7.82006348 154.3121196 6.8940332 154.31100677 5.93994141 154.30986023 C5.07804199 154.30348038 4.21614258 154.29710052 3.328125 154.29052734 C2.57378174 154.28671555 1.81943848 154.28290375 1.04223633 154.27897644 C-1.10626306 154.14273628 -2.98968834 153.69177815 -5.06640625 153.14526367 C-5.08973373 133.34419807 -5.10738468 113.54313524 -5.11821842 93.74205875 C-5.1233817 84.54873763 -5.130425 75.35542503 -5.1418457 66.16210938 C-5.15179157 58.15219331 -5.15825944 50.14228342 -5.16049474 42.13236135 C-5.16180202 37.88849114 -5.16488891 33.64463858 -5.17213631 29.400774 C-5.17889499 25.41097297 -5.18102352 21.42119697 -5.17951393 17.43139076 C-5.17979033 15.96276972 -5.18179635 14.49414788 -5.18561172 13.02553177 C-5.19054653 11.02903591 -5.18880438 9.0325268 -5.18666077 7.036026 C-5.18758256 5.91604753 -5.18850435 4.79606905 -5.18945408 3.64215183 C-4.9895857 -0.4135799 -3.65442493 0.01824032 0 0 Z " fill="none" transform="translate(1252.06640625,1390.854736328125)"/>
  </svg>
</svg>
