<svg xmlns="http://www.w3.org/2000/svg" width="1200" height="600" viewBox="0 0 1200 600">
<rect width="100%" height="100%" fill="#fafaff"/>
<defs><filter id="s"><feDropShadow dx="0" dy="5" stdDeviation="6" flood-opacity=".18"/></filter></defs>
<rect x="80" y="80" width="180" height="180" rx="30" fill="white" stroke="#e8e6f5" filter="url(#s)"/>
<text x="170" y="195" font-family="Arial" font-size="96" font-weight="700" text-anchor="middle" fill="#3046E8">K</text>
<rect x="300" y="80" width="180" height="180" rx="30" fill="white" stroke="#e8e6f5" filter="url(#s)"/>
<text x="390" y="195" font-family="Arial" font-size="96" font-weight="700" text-anchor="middle" fill="#7138E8">L</text>
<rect x="520" y="80" width="180" height="180" rx="30" fill="white" stroke="#e8e6f5" filter="url(#s)"/>
<text x="610" y="195" font-family="Arial" font-size="96" font-weight="700" text-anchor="middle" fill="#16A878">M</text>
<rect x="740" y="80" width="180" height="180" rx="30" fill="white" stroke="#e8e6f5" filter="url(#s)"/>
<text x="830" y="195" font-family="Arial" font-size="96" font-weight="700" text-anchor="middle" fill="#F39A18">N</text>
<rect x="960" y="80" width="180" height="180" rx="30" fill="white" stroke="#e8e6f5" filter="url(#s)"/>
<text x="1050" y="195" font-family="Arial" font-size="96" font-weight="700" text-anchor="middle" fill="#E83D45">O</text>
<rect x="80" y="320" width="180" height="180" rx="30" fill="white" stroke="#e8e6f5" filter="url(#s)"/>
<text x="170" y="435" font-family="Arial" font-size="96" font-weight="700" text-anchor="middle" fill="#3046E8">P</text>
<rect x="300" y="320" width="180" height="180" rx="30" fill="white" stroke="#e8e6f5" filter="url(#s)"/>
<text x="390" y="435" font-family="Arial" font-size="96" font-weight="700" text-anchor="middle" fill="#7138E8">Q</text>
<rect x="520" y="320" width="180" height="180" rx="30" fill="white" stroke="#e8e6f5" filter="url(#s)"/>
<text x="610" y="435" font-family="Arial" font-size="96" font-weight="700" text-anchor="middle" fill="#16A878">R</text>
<rect x="740" y="320" width="180" height="180" rx="30" fill="white" stroke="#e8e6f5" filter="url(#s)"/>
<text x="830" y="435" font-family="Arial" font-size="96" font-weight="700" text-anchor="middle" fill="#F39A18">S</text>
<rect x="960" y="320" width="180" height="180" rx="30" fill="white" stroke="#e8e6f5" filter="url(#s)"/>
<text x="1050" y="435" font-family="Arial" font-size="96" font-weight="700" text-anchor="middle" fill="#E83D45">T</text>
</svg>